<svg version="1.1" class="co-morbidity-icon-pink" xmlns="http://www.w3.org/2000/svg" xmlns:xlink="http://www.w3.org/1999/xlink" x="0px" y="0px" viewBox="0 0 30 30" enable-background="new 0 0 30 30" xml:space="preserve"><g><g><path fill="#C50084" d="M13.403,11.642c1.223-2.384,3.7-4.019,6.564-4.019c2.285,0,4.326,1.039,5.679,2.669l4.119-4.119 c-2.416-2.68-5.905-4.375-9.798-4.375c-4.644,0-8.721,2.404-11.074,6.029C10.865,8.429,12.489,9.826,13.403,11.642z"></path><path fill="#C50084" d="M19.967,22.378c-2.864,0-5.341-1.635-6.564-4.019c-0.914,1.815-2.538,3.212-4.511,3.815 c2.353,3.626,6.43,6.029,11.074,6.029c3.893,0,7.381-1.695,9.798-4.375l-4.119-4.119C24.293,21.339,22.251,22.378,19.967,22.378z"></path><g><circle fill="#C50084" cx="6.736" cy="15" r="6.5"></circle></g></g>
                                                   <polygon fill="#FFFFFF" points="11.207,14 7.707,14 7.707,10.5 5.707,10.5 5.707,14 2.207,14 2.207,16 5.707,16 5.707,19.5 
                                                   7.707,19.5 7.707,16 11.207,16 	"></polygon>
                                                </g>
                                             </svg>