<?xml version="1.0" standalone="no"?>
<!DOCTYPE svg PUBLIC "-//W3C//DTD SVG 1.1//EN" "http://www.w3.org/Graphics/SVG/1.1/DTD/svg11.dtd">
<svg xmlns="http://www.w3.org/2000/svg">
<metadata>Generated by Fontastic.me</metadata>
<defs>
<font id="untitled-font-1" horiz-adv-x="512">
<font-face font-family="untitled-font-1" units-per-em="512" ascent="480" descent="-32"/>
<missing-glyph horiz-adv-x="512" />

<glyph glyph-name="bp-icons-alert" unicode="&#97;" d="M474 55l-436 0c-6 0-11 4-14 9-3 5-3 12 0 17l219 367c3 5 8 9 14 9 0 0 0 0 0 0 6-1 12-4 15-9l216-367c3-5 3-12 0-17-3-5-8-9-14-9z m-406 35l376 0-187 316z m164 46c0 7 2 12 7 17 4 4 10 6 17 6 7 0 13-3 17-7 5-4 7-9 7-16 0-8-2-13-7-17-4-4-10-7-17-7-7 0-13 3-18 7-4 4-6 10-6 17z m-1 178l50 0-8-140-34 0z"/>
<glyph glyph-name="bp-icons-back" unicode="&#98;" d="M391 273l0-34-205 0 94-94-24-24-135 135 135 135 24-24-94-94z"/>
<glyph glyph-name="bp-icons-breadcrumb-arrow" unicode="&#99;" d="M218 169c-3 0-5 1-6 2-4 4-4 9-1 13l72 73-72 71c-3 4-3 9 0 12 4 4 9 4 12 0l84-83-83-85c-2-2-4-3-6-3z"/>
<glyph glyph-name="bp-icons-calculator-ex-sm-on-white" unicode="&#100;" d="M285 195l21 0 0-22-21 0z m0 79l21 0 0-21-21 0z m0-40l21 0 0-21-21 0z m-43-39l21 0 0-22-21 0z m0 79l21 0 0-21-21 0z m0-40l21 0 0-21-21 0z m-41-39l21 0 0-22-21 0z m0 79l21 0 0-21-21 0z m0-40l21 0 0-21-21 0z m127-99l-150 0c-11 0-19 9-19 19l0 204c0 10 8 19 19 19l150 0c10 0 19-9 19-19l0-204c0-10-9-19-19-19z m-150 223l-1-204 151 0c0 0 0 0 0 0l0 204z m22-26l106 0 0-32-106 0z"/>
<glyph glyph-name="bp-icons-calculator-small" unicode="&#101;" d="M288 195l21 0 0-22-21 0z m0 79l21 0 0-21-21 0z m0-40l21 0 0-21-21 0z m-43-39l22 0 0-22-22 0z m0 79l22 0 0-21-22 0z m0-40l22 0 0-21-22 0z m-41-39l22 0 0-22-22 0z m0 79l22 0 0-21-22 0z m0-40l22 0 0-21-22 0z m-1 98l106 0 0-32-106 0z m128-196l-150 0c-10 0-18 8-18 18l0 204c0 10 8 18 18 18l150 0c10 0 18-8 18-18l0-204c0-10-8-18-18-18z m-150 223l-1-205 151-1 1 205-1 1z"/>
<glyph glyph-name="bp-icons-calculators" unicode="&#102;" d="M304 157l34 0 0-34-34 0z m0 128l34 0 0-34-34 0z m0-64l34 0 0-34-34 0z m-68-64l34 0 0-34-34 0z m0 128l34 0 0-34-34 0z m0-64l34 0 0-34-34 0z m-66-64l34 0 0-34-34 0z m0 128l34 0 0-34-34 0z m0-64l34 0 0-34-34 0z m-2 157l170 0 0-51-170 0z m206-318l-242 0c-18 0-33 14-33 32l0 328c0 18 15 32 33 32l242 0c18 0 33-14 33-32l0-328c0-18-15-32-33-32z m-240 34l238 0 0 324-238 0z"/>
<glyph glyph-name="bp-icons-calendar" unicode="&#103;" d="M453 3l-394 0c-29 0-53 24-53 53l0 343c0 30 24 54 53 54l394 0c29 0 53-24 53-54l0-343c0-29-24-53-53-53z m-394 428c-17 0-31-14-31-32l0-343c0-17 14-32 31-32l394 0c17 0 31 15 31 32l0 343c0 18-14 32-31 32z m83-41c-12 0-22 10-22 22l0 75c0 12 10 22 22 22 11 0 21-10 21-22l0-75c0-12-10-22-21-22z m235 0c-12 0-21 10-21 22l0 75c0 12 9 22 21 22 12 0 22-10 22-22l0-75c0-12-10-22-22-22z m0-19c-21 0-37 17-37 38 0 3 2 5 5 5 3 0 5-2 5-5 0-15 12-27 27-27 15 0 27 12 27 27 0 3 2 5 5 5 3 0 6-2 6-5 0-21-17-38-38-38z m-235 0c-21 0-38 17-38 38 0 3 2 5 5 5 3 0 6-2 6-5 0-15 12-27 27-27 15 0 27 12 27 27 0 3 2 5 5 5 3 0 5-2 5-5 0-21-17-38-37-38z m-19-114l-58 0 0 58 58 0z m-43 15l28 0 0 28-28 0z m151-15l-58 0 0 58 58 0z m-43 15l28 0 0 28-28 0z m151-15l-58 0 0 58 58 0z m-43 15l28 0 0 28-28 0z m151-15l-57 0 0 58 57 0z m-43 15l29 0 0 28-29 0z m-281-114l-58 0 0 58 58 0z m-43 15l28 0 0 28-28 0z m151-15l-58 0 0 58 58 0z m-43 15l28 0 0 28-28 0z m151-15l-58 0 0 58 58 0z m-43 15l28 0 0 28-28 0z m151-15l-57 0 0 58 57 0z m-43 15l29 0 0 28-29 0z m-281-113l-58 0 0 57 58 0z m-43 14l28 0 0 29-28 0z m151-14l-58 0 0 57 58 0z m-43 14l28 0 0 29-28 0z m151-14l-58 0 0 57 58 0z m-43 14l28 0 0 29-28 0z m151-14l-57 0 0 57 57 0z m-43 14l29 0 0 29-29 0z m89 277l-476 0c-3 0-6 3-6 6 0 3 3 5 6 5l476 0c3 0 6-2 6-5 0-3-3-6-6-6z"/>
<glyph glyph-name="bp-icons-certificate" unicode="&#104;" d="M430 2l-348 0c-10 0-19 9-19 20l0 460c0 10 9 19 19 19l348 0c10 0 19-9 19-19l0-460c0-11-9-20-19-20z m-346 21l344 0 0 457-344 0z m320 21l-68 23-68-23 29 99c1 6 7 9 13 8 6-2 9-8 7-14l-17-59 37 12 35-12-17 59c-2 6 2 12 7 14 6 1 12-2 14-8z m-68 78c-40 0-73 33-73 73 0 40 33 73 73 73 40 0 73-33 73-73 0-40-33-73-73-73z m0 125c-28 0-51-23-51-52 0-28 23-51 51-51 28 0 52 23 52 51 0 29-24 52-52 52z m39 107l-237 0c-6 0-11 5-11 11 0 6 5 10 11 10l237 0c5 0 10-4 10-10 0-6-5-11-10-11z m0-59l-237 0c-6 0-11 5-11 11 0 6 5 10 11 10l237 0c5 0 10-4 10-10 0-6-5-11-10-11z m-140-59l-97 0c-6 0-11 5-11 11 0 5 5 10 11 10l97 0c6 0 11-5 11-10 0-6-5-11-11-11z m0-59l-97 0c-6 0-11 5-11 10 0 6 5 11 11 11l97 0c6 0 11-5 11-11 0-5-5-10-11-10z m140 236l-237 0c-6 0-11 5-11 11 0 6 5 10 11 10l237 0c5 0 10-4 10-10 0-6-5-11-10-11z m-140-292l-97 0c-6 0-11 5-11 11 0 6 5 10 11 10l97 0c6 0 11-4 11-10 0-6-5-11-11-11z"/>
<glyph glyph-name="bp-icons-checkmark" unicode="&#105;" d="M222 93c-4 0-8 1-11 5-47 55-81 94-144 152-3 3-5 7-5 11 0 4 2 8 5 11l14 12c3 3 7 5 11 4 33-4 71-12 113-39 58 55 189 152 224 169 6 3 14 1 18-5 4-5 4-13-2-18-35-36-175-212-209-294-2-4-7-7-12-8 0 0-1 0-2 0z m-120 165c48-47 80-82 117-124 29 56 88 138 137 200-51-38-110-85-139-114-5-5-13-6-18-2-36 25-69 35-97 40z"/>
<glyph glyph-name="bp-icons-close" unicode="&#106;" d="M94 120l298 298 26-26-298-298z m0 272l26 26 298-298-26-26z"/>
<glyph glyph-name="bp-icons-delete" unicode="&#107;" d="M346 104l-180 0-21 239 222 0z m-90 17l75 0 17 205-184 0 18-205z m27 176l17 0 0-148-17 0z m-69 0l17 0 0-148-17 0z m152 47l-1 19-54 0-22 28-66 0-22-28-54 0-1-19-17 1 2 35 61 0 23 28 82 0 23-28 61 0 2-35z"/>
<glyph glyph-name="bp-icons-down-arrow" unicode="&#108;" d="M334 319l-78-78-78 78-24-24 102-102 102 102z"/>
<glyph glyph-name="bp-icons-download" unicode="&#109;" d="M337 135l-151 0c-10 0-19 9-19 19l0 50c0 5 5 9 10 9 5 0 9-4 9-9l0-50 151 0 0 50c0 5 4 9 9 9 6 0 10-4 10-9l0-50c0-10-9-19-19-19z m-76 45c-2 0-5 1-7 4l-77 96c-2 3-3 7-1 10 2 3 5 6 9 6l35 0 0 69c0 5 4 10 10 10l64 0c5 0 9-5 9-10l0-69 35 0c4 0 7-3 9-6 2-3 1-7-1-10l-77-96c-2-3-5-4-8-4z m-56 96l57-70 56 70-24 0c-6 0-10 4-10 10l0 69-45 0 0-69c0-6-4-10-9-10z"/>
<glyph glyph-name="bp-icons-linked-in" unicode="&#110;" d="M448 503c31 0 55-24 55-55l0-384c0-31-24-55-55-55l-384 0c-31 0-55 24-55 55l0 384c0 31 24 55 55 55l384 0m-13-426l0 146c0 50-40 90-90 90-23 0-50-15-64-36l0 30-76 0 0-230 76 0 0 136c0 21 17 38 39 38 21 0 38-17 38-38l0-136 77 0m-320 274c26 0 46 20 46 46 0 25-20 46-46 46-25 0-46-21-46-46 0-26 21-46 46-46m38-274l0 230-76 0 0-230z"/>
<glyph glyph-name="bp-icons-info" unicode="&#111;" d="M250 333c-37 0-67 30-67 67 0 37 30 67 67 67 37 0 67-30 67-67 0-37-30-67-67-67z m0 105c-21 0-38-17-38-38 0-21 17-38 38-38 21 0 38 17 38 38 0 21-17 38-38 38z m98-393l-180 0c-8 0-15 7-15 15l0 40c0 6 4 11 10 13 0 0 36 15 36 37l0 66c0 13-26 22-38 25-7 1-11 7-11 14l0 30c0 8 6 15 14 15l141 5c4 0 7-1 10-4 3-3 5-7 5-10l0-34c0-34 0-84 0-107 0-23 33-37 33-37 6-2 9-8 9-13l0-40c0-8-6-15-14-15z m-166 29l151 0 0 16c-14 9-42 28-42 60 0 23 0 73 0 107l0 19-112-5 0-5c18-5 49-19 49-50l0-66c0-32-30-52-46-60l0-16z"/>
<glyph glyph-name="bp-icons-important-updates" unicode="&#112;" d="M290 78c-47 0-91 18-125 50l22 22c28-26 64-41 103-41 81 0 147 66 147 147 0 81-66 147-147 147-82 0-148-66-148-147 0-15 3-30 7-45l-29-9c-6 17-9 36-9 54 0 98 80 178 179 178 98 0 178-80 178-178 0-98-80-178-178-178z m-162 96l69 87-137 0m215-77c0 6 3 12 7 16 4 3 9 5 16 5 7 0 12-2 16-6 4-4 6-9 6-15 0-7-2-12-6-16-4-4-10-6-16-6-7 0-13 2-17 6-4 4-6 9-6 16z m0 166l46 0-7-130-32 0z"/>
<glyph glyph-name="bp-icons-hmpg-acolade" unicode="&#113;" d="M86 357c2-2-7-23-14-35-3-6-23-26-26-25-3 1 7 26 12 35 7 10 25 26 28 25z m-65-5c3 0 13-20 17-33 2-7 4-35 2-36-3-2-15 22-18 32-4 12-4 36-1 37z m18 45c3 1 9-22 10-35 1-7-2-35-5-36-3-1-11 25-12 35-1 13 4 36 7 36z m38 23c3 0 1-23-2-36-1-7-13-33-16-33-3 0-2 27 0 37 3 12 15 33 18 32z m-65-213c1 3 23-3 36-9 6-3 29-19 28-23 0-3-27 4-36 8-11 5-29 21-28 24z m0 47c2 2 20-12 29-21 5-6 20-30 18-32-2-3-24 13-30 21-9 9-20 30-17 32z m-12 53c3 2 19-14 27-25 5-5 17-31 15-33-2-3-22 16-28 24-8 10-16 32-14 34z m102-118c2 2 19-14 27-24 5-6 17-31 15-33-2-3-22 15-28 23-8 10-17 32-14 34z m-33 54c3 1 12-20 15-33 2-7 4-35 1-36-3-2-14 23-17 32-3 12-2 36 1 37z m-5 60c2-1 3-23 2-37-1-7-10-33-13-34-3-1-5 27-3 37 1 12 10 34 14 34z m4-170c0 3 23 5 37 4 7 0 34-8 34-11 1-3-26-6-36-6-13 1-35 10-35 13z m-30 30c1 3 24 3 37 1 7-1 33-12 34-15 0-3-27-3-37-2-12 2-34 13-34 16z m388 194c-2-2 7-23 14-35 3-6 23-26 26-25 3 1-7 26-12 35-7 10-25 26-28 25z m65-5c-2 0-13-20-17-33-2-7-4-35-2-36 3-2 15 22 18 32 4 12 4 36 1 37z m-18 45c-3 1-9-22-10-35-1-7 2-35 5-36 3-1 11 25 12 35 1 13-4 36-7 36z m-38 23c-3 0-1-23 2-36 1-7 13-33 16-33 3 0 2 27 0 37-3 12-15 33-18 32z m65-213c-1 3-23-3-36-9-6-3-29-19-28-23 0-3 27 4 36 8 11 5 29 21 28 24z m0 47c-2 2-20-12-29-21-5-6-20-30-18-32 2-3 24 13 30 21 9 9 20 30 17 32z m12 53c-3 2-19-14-27-25-5-5-17-31-15-33 2-3 22 16 28 24 8 10 16 32 14 34z m-102-118c-2 2-19-14-27-24-5-6-17-31-15-33 2-3 22 15 28 23 8 10 17 32 14 34z m33 54c-3 1-12-20-15-33-2-7-4-35-1-36 3-2 14 23 17 32 3 12 2 36-1 37z m5 60c-2-1-3-23-2-37 1-7 10-33 13-34 3-1 5 27 3 37-1 12-10 34-14 34z m-4-170c0 3-23 5-37 4-7 0-34-8-34-11-1-3 26-6 36-6 13 1 35 10 35 13z m30 30c-1 3-24 3-37 1-7-1-33-12-34-15 0-3 27-3 37-2 12 2 34 13 34 16z m-461 338c0 0-1-1-1-1 1-1 5-1 5-2 0-1-1-1-1-1m112-141c34-24 82-23 98-2 0 8-1 13-1 23-3 10-10 16-21 16-20 0-25-19-76-37z m137-6l-20 0 3-49 14 0z m11 10c0-12-9-22-21-22-12 0-22 10-22 22 0 12 10 21 22 21 12 0 21-9 21-21z m105-4c-33-24-81-23-97-2 0 8 0 13 0 23 4 10 11 16 22 16 20 0 25-19 75-37z m-141-29c-1 4-8 7-16 5-7-2-12-8-11-13 1-5 9-7 16-5 7 2 12 8 11 13z m50 5c-8 2-15-1-16-5-2-5 3-11 11-13 7-2 14 1 16 5 1 5-4 11-11 13z m-273 169c0 0 1-1 1-1 0-1-1-1-1-1m-2-3c-1 0-2 0-1-1 0-1 2-1 2-1m-1 0c-2 0 0-1 0-1m0 6c0 0-2 0-2-1 0-1 4-2 3-3m-1 4c0 0-2 0-2-1 0-1 4-2 3-3m270-369l8 17 9-16 18-3-13-13 3-19-16 9-17-9 3 18-14 13z m-82 0l9 17 8-16 19-3-13-13 3-19-17 9-16-9 3 18-14 13z"/>
<glyph glyph-name="bp-icons-highlight-checkmark" unicode="&#114;" d="M391 257c0-75-61-136-136-136-76 0-137 61-137 136 0 76 61 137 137 137 13 0 25-2 37-5l27 26c-20 9-42 13-64 13-95 0-171-76-171-171 0-94 76-170 171-170 94 0 170 76 170 170m-240 33l-24-24 77-77 170 171-24 24-146-147z"/>
<glyph glyph-name="bp-icons-highlight" unicode="&#115;" d="M256 176l-77-46 20 87-68 59 90 8 35 83 35-83 90-8-68-59 20-87m128 172l-147 13-58 136-58-136-147-13 112-97-34-144 127 77 127-77-34 144z"/>
<glyph glyph-name="bp-icons-feedback" unicode="&#116;" d="M435 57l-89 88-220 0c-27 0-49 23-49 50l0 195c0 27 22 49 49 49l260 0c27 0 49-22 49-49z m-309 348c-8 0-15-7-15-15l0-195c0-8 7-15 15-15l234 0 41-41 0 251c0 8-7 15-15 15z m23-43l214 0 0-26-214 0z m0-54l214 0 0-26-214 0z m0-55l214 0 0-25-214 0z"/>
<glyph glyph-name="bp-icons-facebook" unicode="&#117;" d="M64 503l384 0c31 0 55-24 55-55l0-384c0-31-24-55-55-55l-384 0c-31 0-55 24-55 55l0 384c0 31 24 55 55 55m357-55l-69 0c-53 0-96-43-96-96l0-69-55 0 0-82 55 0 0-192 82 0 0 192 83 0 0 82-83 0 0 55c0 16 13 28 28 28l55 0 0 82z"/>
<glyph glyph-name="bp-icons-evidence-extra-small" unicode="&#118;" d="M302 142l-131 0c-3 0-6 2-8 5-1 2-1 6 1 8 0 1 16 26 34 37 4 3 9 1 11-3 3-4 2-9-2-11-7-5-14-12-19-19l96 0c-5 7-13 14-22 18-3 2-5 6-4 10l15 57c1 4 5 7 10 6 4-1 7-6 6-10l-13-51c19-13 32-33 33-34 2-2 2-5 0-8-1-3-4-5-7-5z m-85 71c-2 0-4 0-6 2l-31 31c-2 2-3 4-3 6 0 2 1 5 3 6l107 108c3 4 8 4 12 0l31-31c2-1 3-4 3-6 0-2-1-4-3-6l-36-36-12 12 30 30-19 19-95-96 19-19 33 33 12-12-39-39c-1-2-3-2-6-2z m65 21c-19 0-34 15-34 34 0 19 15 35 34 35 19 0 35-16 35-35 0-19-16-34-35-34z m0 52c-9 0-17-8-17-18 0-9 8-17 17-17 10 0 18 8 18 17 0 10-8 18-18 18z m-52-106l-76 0c-5 0-9 4-9 9 0 4 4 8 9 8l76 0c5 0 8-4 8-8 0-5-3-9-8-9z"/>
<glyph glyph-name="bp-icons-evidence" unicode="&#119;" d="M380 34l-258 0c-6 0-11 3-13 8-3 5-3 10 0 15 1 2 32 50 66 72 7 4 16 2 20-5 5-7 3-16-4-20-16-10-31-27-41-41l201 0c-12 14-29 30-48 41-6 3-9 9-7 16l29 112c2 8 10 13 17 11 8-2 13-10 11-18l-26-102c38-25 64-64 66-66 2-5 3-10 0-15-2-5-7-8-13-8z m-167 139c-3 0-7 2-10 5l-62 61c-3 3-5 7-5 10 0 4 2 8 5 11l211 213c6 6 15 6 20 0l63-61c3-3 4-7 4-11 0-3-1-7-4-10l-72-72-20 20 61 62-42 42-191-193 42-42 67 68 21-21-77-77c-3-3-7-5-11-5z m129 43c-36 0-66 29-66 65 0 37 30 66 66 66 36 0 66-29 66-66 0-36-30-65-66-65z m0 102c-20 0-37-16-37-37 0-20 17-36 37-36 20 0 37 16 37 36 0 21-17 37-37 37z m-104-209l-151 0c-8 0-14 7-14 15 0 8 6 14 14 14l151 0c8 0 15-6 15-14 0-8-7-15-15-15z"/>
<glyph glyph-name="bp-icons-drugs-extra-small-on-white" unicode="&#120;" d="M217 144c-16 0-32 7-43 18-12 12-18 27-19 44 0 16 7 32 18 43l84 85c12 12 27 18 44 18 16 0 32-6 43-17 12-12 19-27 19-44 0-17-7-32-18-44l-84-85c-12-11-27-18-44-18z m84 200c14 0 27-5 37-16 10-10 16-23 16-37 0-14-5-28-15-38l-84-85c-10-10-23-15-38-15-14 0-27 5-37 15-10 10-16 24-16 38 0 14 5 27 15 37l84 85c10 10 24 16 38 16m0 17c-18 0-36-7-50-21l-84-85c-27-27-27-72 1-99l0 0c14-14 31-20 49-20 18 0 36 7 50 20l84 85c27 28 27 72-1 100l0 0c-13 13-31 20-49 20z m8-147c-24 1-50 24-64 41-15-15-70-67-81-77 4-17 57-42 80-25 24 16 65 61 65 61z"/>
<glyph glyph-name="bp-icons-drugs-extra-small" unicode="&#121;" d="M297 350c14 0 27-5 37-15 21-20 21-53 1-74l-83-84c-10-10-23-15-37-15-14 0-27 5-37 15-21 20-21 53-1 74l83 84c10 10 23 15 37 15m0 17c-18 0-35-6-49-20l-83-84c-27-27-27-71 1-98l0 0c13-14 31-20 49-20 18 0 35 6 49 20l83 84c27 27 27 71-1 98l0 0c-13 14-31 20-49 20z m-93-73c23-1 50-23 64-39 14 15 67 68 77 78-4 17-57 40-80 23-22-17-61-62-61-62z"/>
<glyph glyph-name="bp-icons-drugs" unicode="&#122;" d="M330 420c23 0 46-9 63-26 35-35 35-91 1-126l-148-150c-17-17-39-26-64-26-23 0-46 9-63 26-35 35-35 91 0 126l147 150c17 17 39 26 64 26m0 34c-32 0-64-12-88-36l-148-150c-47-48-47-126 1-174l1-1c24-23 55-35 86-35 32 0 64 12 88 36l148 150c47 48 47 126-1 174l-1 1c-24 23-55 35-86 35z m-167-147c42 0 89-40 114-69 26 27 119 121 138 140-7 29-102 71-142 40-40-30-110-111-110-111z"/>
<glyph glyph-name="bp-icons-menu" unicode="&#65;" d="M64 154l384 0 0-35-384 0z m0 119l384 0 0-34-384 0z m0 120l384 0 0-35-384 0z"/>
<glyph glyph-name="bp-icons-mobile" unicode="&#66;" d="M206 4c-26 0-50 18-56 45l-77 350c-7 31 13 62 44 69l176 39c31 7 62-13 69-44l77-350c3-15 0-31-8-44-8-13-21-22-36-25l-176-39c-4-1-8-1-13-1z m100 486c-3 0-6 0-9-1l-176-38c-22-5-35-26-31-48l77-350c5-21 27-35 48-30l176 38c10 3 19 9 25 18 6 9 8 20 6 30l-77 350c-4 19-21 31-39 31z m-175-111l187 42 60-276-187-41z m54-286l-65 293 205 45 64-293z m-44 280l57-258 170 37-57 258z m175-288c-2 12-14 19-26 16-12-2-20-14-17-26 3-12 15-20 27-17 12 3 19 15 16 27z m-21-32c-5 0-10 2-15 4-6 4-10 10-11 17-3 14 6 29 20 32 15 3 29-6 32-20 3-15-6-29-21-32-1-1-3-1-5-1z m0 45c-1 0-3-1-4-1-10-2-16-11-14-21 1-5 4-9 8-11 4-3 9-4 14-3 4 1 8 4 11 8 2 4 3 9 2 14l0 0c-1 4-4 8-8 11-3 2-6 3-9 3z m-36 340l-85-18c-4-1-8 1-9 5-1 5 1 9 6 10l84 18c5 1 9-1 10-6 1-4-2-8-6-9z m-87-23c-5 0-10 4-12 9-1 7 3 14 10 15l84 19c7 1 14-3 15-10 1-3 0-6-2-9-1-3-4-5-7-5l-85-19c-1 0-2 0-3 0z m85 34c0 0 0 0-1 0l-84-19c-1 0-2 0-3-1 0-1 0-2 0-3 0-1 2-3 4-2l85 19c1 0 1 0 2 1 0 1 0 2 0 2 0 2-1 3-3 3z"/>
<glyph glyph-name="bp-icons-outbound-link" unicode="&#67;" d="M294 136l-149 0c-5 0-9 4-9 9l0 149c0 5 4 9 9 9l60 0c5 0 9-4 9-9 0-6-4-10-9-10l-51 0 0-130 130 0 0 50c0 6 5 10 10 10 5 0 9-4 9-10l0-59c0-5-4-9-9-9z m-58 38c-3 0-5 1-7 3l-53 52c-1 2-2 4-2 7 0 2 1 4 2 6l73 72-46 46c-3 3-4 7-2 11 1 3 5 5 8 5l158 0c5 0 9-4 9-9l0-158c0-3-2-7-6-8-3-2-7-1-10 2l-46 46-72-72c-2-2-4-3-6-3z m-40 62l40-40 72 72c3 4 9 4 13 0l37-36 0 126-126 0 36-37c2-2 3-4 3-7 0-2-1-4-3-6z"/>
<glyph glyph-name="bp-icons-patient-leaflets" unicode="&#68;" d="M194 184l136 0 0-34-136 0z m0 60l136 0 0-34-136 0z m0 60l136 0 0-34-136 0z m189-236l-245 0c-17 0-31 14-31 32l0 312c0 18 14 32 31 32l189 0 87-87 0-257c0-18-14-32-31-32z m-242 34l239 0 0 241-67 67-172 0z m166 318l0-81 84 0z"/>
<glyph glyph-name="bp-icons-patient-leaflets-extra-small" unicode="&#69;" d="M212 211l90 0 0-17-90 0z m0 40l90 0 0-17-90 0z m0 40l90 0 0-17-90 0z m125-151l-162 0c-10 0-19 8-19 18l0 208c0 10 9 18 19 18l124 0 57-56 0-170c0-10-9-18-19-18z m-162 227l-1-209 1-1 162 0 1 164-46 46-117 0z m115 10l0-54 56 0z"/>
<glyph glyph-name="bp-icons-pdf-extra-small-on-white" unicode="&#70;" d="M339 132l-169 0c-14 0-25 11-25 24l0 196c0 13 11 24 25 24l143 0 51-46 0-174c0-13-11-24-25-24z m-169 227c-4 0-8-3-8-7l0-196c0-4 4-6 8-6l169 0c4 0 8 2 8 6l0 167-40 36-137 0z m133-124l-17-1-11 8c-7 6-15 18-20 32l1 2c4 16 8 37 0 45-2 2-5 3-8 3l-3 0c-5 0-9-5-10-10-5-16-2-26 3-41l0 0c-3-11-7-24-14-37l-12-23-11-6c-15-9-23-20-24-27 0-2 0-4 1-6l0-1 6-4 6-1c10 0 21 12 37 38l2 1c13 4 29 7 51 10 13-7 28-10 38-10 6 0 9 2 11 4 3 2 4 5 4 9 0 2 0 4-2 6-3 6-13 9-28 9z m-116-58c1 4 7 13 16 21l6 4c-8-15-16-24-22-25z m59 138l1 1 2 0c2-3 2-7 1-14l-1-2-2-11 0 0c-3 11-3 20-1 26z m-16-99l-1 0 6 13c6 11 10 21 13 30 5-11 12-20 19-27l5-4c-11-2-26-5-42-12z m94 1l0 0-3 0c-5 0-14 2-24 6 2 2 2 2 3 2 18 0 23-4 24-5l1-1c0-1 0-2-1-2z m-26 146l0-47 60 0-60 55z"/>
<glyph glyph-name="bp-icons-pdf-light-blue-on-dark-blue" unicode="&#71;" d="M401 59l-263 0c-22 0-39 16-39 36l0 307c0 20 17 36 39 36l222 0 80-71 0-272c0-20-18-36-39-36z m-263 353c-7 0-13-5-13-10l0-307c0-5 6-9 13-9l263 0c6 0 12 4 12 9l0 260-63 57-212 0z m205-193l-25-1-17 11c-12 10-23 28-30 50l0 2c7 26 13 57 0 70-3 3-7 4-12 4l-4 0c-8 0-14-7-16-15-7-25-3-39 5-63l0 0c-5-17-11-36-21-56l-19-35-17-9c-23-15-34-31-36-41-1-4-1-7 1-11l0-1 10-6 8-2c16 0 33 19 57 59l4 2c20 6 44 11 77 14 20-10 44-14 58-14 9 0 15 2 18 6 3 3 5 8 5 13 1 3 0 7-2 10-6 9-20 13-44 13z m-176-89c1 7 9 20 23 32l9 6c-12-23-24-35-32-38z m89 211l1 2 3-1c4-4 4-10 2-21l-1-3-3-16-1-1c-4 18-4 32-1 40z m-24-150l-2-1 10 20c8 17 15 32 19 46 8-17 18-31 29-41l8-6c-16-3-40-9-64-18z m144 1l-1 0-4-1c-8 0-22 4-36 10 2 2 2 2 4 2 27 0 35-5 37-7l2-2c-1-2-1-2-2-2z m-38 226l0-73 93 0-93 86z"/>
<glyph glyph-name="bp-icons-procedural-videos" unicode="&#72;" d="M218 346l0-177 115 90z m33-289c-109 0-197 88-197 196 0 108 88 196 197 196 108 0 196-88 196-196 0-108-88-196-196-196z m0 358c-90 0-162-73-162-162 0-90 72-162 162-162 89 0 162 72 162 162 0 89-73 162-162 162z"/>
<glyph glyph-name="bp-icons-procedural-videos-extra-small" unicode="&#73;" d="M236 314l0-110 71 56z m20-177c-66 0-119 53-119 119 0 66 53 119 119 119 66 0 119-53 119-119 0-66-53-119-119-119z m0 222c-57 0-103-46-103-103 0-57 46-103 103-103 57 0 103 46 103 103 0 57-46 103-103 103z"/>
<glyph glyph-name="bp-icons-recent-updates" unicode="&#74;" d="M293 60c-51 0-100 19-137 55l24 25c30-30 71-46 113-46 89 0 162 73 162 162 0 89-73 162-162 162-89 0-162-73-162-162 0-17 2-33 7-49l-32-10c-6 19-9 39-9 59 0 108 88 196 196 196 108 0 196-88 196-196 0-108-88-196-196-196z m-178 105l76 96-151 0m326-91l-91 51c-6 3-9 8-9 15l0 136 34 0 0-126 83-46z"/>
<glyph glyph-name="bp-icons-recent-updates-extra-small" unicode="&#75;" d="M272 135c-32 0-62 12-85 34l12 12c20-19 45-29 73-29 57 0 103 47 103 104 0 57-46 104-103 104-58 0-104-47-104-104 0-11 1-21 4-31l-16-6c-4 12-5 24-5 37 0 67 54 121 121 121 66 0 121-54 121-121 0-67-55-121-121-121z m-112 74l32 41-64 0m189-45l-56 31c-2 1-4 4-4 7l0 84 17 0 0-79 51-28z"/>
<glyph glyph-name="bp-icons-red-flag" unicode="&#76;" d="M151 401c9 0 16-7 16-16l0-14c17 7 41 14 65 14 48 0 48-32 80-32 49 0 65 32 65 32l0-129c0 0-16-32-65-32-48 0-48 32-80 32-49 0-65-32-65-32l0-113-32 0 0 274c0 9 7 16 16 16m16-68l0-69c0 0 33 24 65 24 32 0 48-32 80-32 33 0 33 16 33 16l0 57c0 0-16-9-33-9-32 0-48 33-80 33-32 0-65-20-65-20z"/>
<glyph glyph-name="bp-icons-search" unicode="&#77;" d="M202 173c-37 0-74 15-102 43-56 56-56 147 0 204 56 56 148 56 204 0 56-57 56-148 0-204-28-28-65-43-102-43z m0 255c-28 0-56-11-78-32-43-43-43-113 0-156 43-43 113-43 156 0 43 43 43 113 0 156-21 21-50 32-78 32z m82-208l16 16 26-26-16-16z m169-153l-16-16-129 129-4 21 8 8z m-1 0l17 16-129 128-21 5-8-8z"/>
<glyph glyph-name="bp-icons-youtube" unicode="&#78;" d="M193 192l-19 0 0 11c-7-8-13-12-19-12-6 0-10 2-12 7-1 3-2 8-2 15l0 79 19 0 0-74c0-4 0-6 0-7 0-3 1-4 4-4 3 0 7 3 10 9l0 76 19 0z m-66 67c0 11-2 19-6 24-5 7-13 10-21 10-9 0-15-3-20-10-4-5-6-13-6-24l0-35c0-11 2-18 5-23 5-7 14-11 21-11 8 0 17 4 22 11 3 5 5 12 5 23z m-19-37c1-10-2-15-8-15-5 0-8 5-7 15l0 39c-1 10 2 15 7 15 6 0 9-5 8-15z m-55 24l0-54-20 0 0 54c0 0-20 67-24 79l20 0 14-52 14 52 21 0z m333 30c-3 0-6-2-9-4l0-60c3-3 6-5 9-5 5 0 8 4 8 14l0 42c0 10-3 13-8 13z m74-12c0 9-2 12-8 12-6 0-9-2-9-12l0-11 17 0z m41 51c0 0-3 20-12 29-11 12-24 12-30 12-41 3-103 3-103 3l0 0c0 0-62 0-103-3-6 0-19 0-30-12-9-9-12-29-12-29 0 0-3-24-3-48l0-22c0-24 3-48 3-48 0 0 3-20 12-29 11-11 26-11 33-12 23-3 100-3 100-3 0 0 62 0 103 3 6 0 19 1 30 12 9 9 11 29 11 29 0 0 3 24 3 48l0 22c0 24-2 48-2 48z m-228-123l-19 0 0 114-21 0 0 18 62 1 0-19-22 0z m71 0l-18 0 0 11c-7-8-14-12-20-12-6 0-10 2-12 7-1 3-2 8-2 15l0 78 19 0 0-73c0-4 0-6 0-7 0-3 1-4 4-4 3 0 7 3 11 9l0 75 18 0z m69 30c0-9-1-16-2-20-3-7-8-11-15-11-6 0-13 4-19 11l0-10-18 0 0 132 18 0 0-43c6 7 12 11 19 11 7 0 12-4 14-11 1-4 3-10 3-20l0-39z m39-15c4 0 7 2 8 7 0 1 0 6 0 13l19 0 0-3c0-6-1-10-1-12 0-4-2-7-4-10-5-8-12-11-22-11-9 0-16 3-21 10-4 5-7 12-7 23l0 34c0 11 3 19 6 24 6 7 13 10 22 10 9 0 16-3 21-10 4-5 6-13 6-23l0-20-36 0 0-18c0-9 3-14 9-14z"/>
<glyph glyph-name="bp-icons-warning" unicode="&#79;" d="M256 51c-113 0-205 92-205 205 0 113 92 205 205 205 113 0 205-92 205-205 0-113-92-205-205-205z m0 376c-94 0-171-77-171-171 0-94 77-171 171-171 94 0 171 77 171 171 0 94-77 171-171 171z m-64-63c23 13 51 15 64 15 19 0 34-3 47-10 10-6 18-13 23-23 4-8 6-16 6-24 0-14-4-27-12-37-8-10-21-20-41-31-16-8-29-16-29-24 0-2 2-8 5-13 1-1 6-3 6-4l-38-11c-8 10-11 20-11 30 0 10 4 19 11 26 5 4 13 10 25 17 6 3 19 8 30 16 7 7 15 16 15 25 0 9-3 17-11 22-7 4-20 6-31 6-13 0-39-4-54-14z m17-203c0 8 3 15 9 20 5 5 12 7 20 7 9 0 16-2 21-7 5-5 8-12 8-20 0-9-3-16-8-21-6-5-12-7-21-7-9 0-16 3-21 8-5 5-8 12-8 20z"/>
<glyph glyph-name="bp-icons-user-for-email-mobile" unicode="&#80;" d="M384 128l-256 0 0 15c0 29 0 52 38 61l2 0c20 5 42 10 46 19 1 3 0 7-3 12-25 48-30 89-13 118 11 20 33 31 58 31 25 0 46-11 58-31 17-28 12-70-13-118-3-5-4-9-3-12 4-9 27-14 46-19l2 0c38-9 38-32 38-61z m-239 17l222 0c0 27 0 36-25 42l2 8-3-8c-26 6-51 12-58 28-4 9-3 18 3 28 22 43 27 79 13 102-8 14-24 22-43 22-20 0-35-8-44-23-13-23-8-59 14-101 6-10 7-19 3-27-7-17-31-23-57-28l-2-1c-25-6-25-15-25-42z"/>
<glyph glyph-name="bp-icons-user-for-email-desktop" unicode="&#81;" d="M410 103l-308 0 0 24c0 33 0 65 50 76 8 2 16 4 24 5 28 5 29 6 29 18 0 4-2 6-7 11-2 2-4 4-6 6l-2 2-1 3c-22 50-24 95-4 125 15 23 41 36 71 36 30 0 56-13 71-36 20-30 18-75-4-125l-1-3-2-2c-2-2-4-4-6-6-5-5-7-7-7-11 0-12 1-13 29-18 8-1 16-3 24-5 50-11 50-43 50-76z m-273 34l238 0c0 24-2 28-22 33-8 2-16 3-22 4-26 5-58 10-58 53l0 2c2 17 10 25 17 32 1 1 2 2 3 3 16 39 18 71 5 91-8 13-23 20-42 20-19 0-34-7-42-20-13-20-11-52 5-91 1-1 2-2 3-3 7-7 15-15 17-32l0-2c0-43-32-48-58-53-6-1-14-2-22-4-20-5-22-9-22-33z"/>
<glyph glyph-name="bp-icons-up-arrow" unicode="&#82;" d="M358 217l-102 102-102-102 24-24 78 78 78-78z"/>
<glyph glyph-name="bp-icons-twitter" unicode="&#83;" d="M503 410c-18-8-37-14-58-17 21 13 37 33 45 57-20-12-42-20-65-25-18 20-45 32-74 32-56 0-101-45-101-101 0-8 1-16 2-24-84 5-159 45-209 106-9-14-14-32-14-50 0-36 18-67 46-85-17 0-33 5-47 12 0 0 0 0 0-1 0-49 35-90 82-99-9-3-18-4-27-4-6 0-13 1-19 2 13-40 50-70 95-70-35-28-79-44-126-44-8 0-16 1-24 2 45-29 98-46 155-46 187 0 289 155 289 289 0 4 0 9 0 13 20 14 37 32 50 53z"/>
<glyph glyph-name="bp-icons-topic-menu" unicode="&#84;" d="M290 384c0-19-15-34-34-34-19 0-34 15-34 34 0 19 15 34 34 34 19 0 34-15 34-34z m0-128c0-19-15-34-34-34-19 0-34 15-34 34 0 19 15 34 34 34 19 0 34-15 34-34z m0-128c0-19-15-34-34-34-19 0-34 15-34 34 0 19 15 34 34 34 19 0 34-15 34-34z"/>
<glyph glyph-name="bp-icons-specialties-extra-small" unicode="&#85;" d="M207 240l98 0 0-17-98 0z m40 40l18 0 0-98-18 0z m107-141l-196 0c-16 0-30 14-30 30l11 125c0 16 13 30 30 30l174 0c17 0 30-14 30-30l11-124c0-17-14-31-30-31z m-185 168c-7 0-13-6-13-13l-11-125c0-7 6-13 13-13l196 0c7 0 13 6 13 13l-11 124c0 8-6 14-13 14l-174 0z m113 11l0 31-52 0 0-31-11 0 0 35 11 11 53 0 10-12 0-34z"/>
<glyph glyph-name="bp-icons-specialties" unicode="&#86;" d="M297 354l0 48-82 0 0-48-34 0 0 54 34 28 83 0 33-28 0-54z m112-296l-306 0c-28 0-51 23-51 52l17 196c0 27 23 50 51 50l272 0c28 0 51-23 51-52l17-193c0-30-23-53-51-53z m-289 263c-10 0-17-7-17-17l-17-196c0-8 7-15 17-15l306 0c10 0 17 7 17 17l-17 193c0 11-7 18-17 18l-272 0z m119-37l34 0 0-154-34 0z m-60-60l154 0 0-34-154 0z"/>
</font>
</defs>
</svg>
